<svg width="134" height="134" xmlns="http://www.w3.org/2000/svg" xmlns:xlink="http://www.w3.org/1999/xlink" xml:space="preserve" overflow="hidden"><defs><clipPath id="clip0"><path d="M502.312 41.7614 554.634 122.25 474.146 174.572 421.823 94.0837Z" fill-rule="evenodd" clip-rule="evenodd"/></clipPath><clipPath id="clip1"><path d="M502.312 41.7614 554.634 122.25 474.146 174.572 421.823 94.0837Z" fill-rule="evenodd" clip-rule="evenodd"/></clipPath><clipPath id="clip2"><path d="M502.312 41.7614 554.634 122.25 474.146 174.572 421.823 94.0837Z" fill-rule="evenodd" clip-rule="evenodd"/></clipPath></defs><g transform="translate(-421 -41)"><g clip-path="url(#clip0)"><g clip-path="url(#clip1)"><g clip-path="url(#clip2)"><path d="M470.285 88.8204C485.797 78.7363 506.547 83.1364 516.631 98.6482 526.715 114.16 522.315 134.91 506.803 144.994 499.311 149.864 490.185 151.539 481.452 149.648 480.912 149.531 480.379 149.874 480.263 150.414 480.146 150.954 480.489 151.486 481.029 151.603 500.191 155.753 519.089 143.584 523.239 124.422 527.389 105.26 515.22 86.3619 496.058 82.2118 486.804 80.2077 477.133 81.9832 469.195 87.1436L465.79 89.3569C465.785 89.3598 465.779 89.3584 465.776 89.3538 465.775 89.3516 465.775 89.349 465.775 89.3465L469.67 70.9799C469.785 70.4394 469.439 69.9086 468.899 69.7942 468.358 69.6797 467.828 70.0251 467.713 70.5655L463.312 91.3172C463.198 91.8574 463.543 92.3881 464.083 92.5027L484.835 96.9037C485.375 97.0184 485.906 96.6735 486.021 96.1332 486.135 95.5928 485.791 95.0617 485.25 94.9469L466.884 91.0518C466.878 91.0507 466.875 91.0453 466.876 91.0399 466.877 91.0374 466.878 91.0352 466.88 91.0338Z"/></g></g></g></g></svg>